<?xml version="1.0" encoding="UTF-8" standalone="no"?>
<svg xmlns:inkscape="http://www.inkscape.org/namespaces/inkscape" xmlns="http://www.w3.org/2000/svg" inkscape:version="0.92.3 (unknown)" height="608" width="608" version="1.1" sodipodi:docname="elementary.svg" xmlns:sodipodi="http://sodipodi.sourceforge.net/DTD/sodipodi-0.dtd">
 <sodipodi:namedview id="base" fit-margin-left="4" inkscape:zoom="0.97625" borderopacity="1.0" inkscape:current-layer="g13" inkscape:cx="23.846354" inkscape:cy="297.85403" inkscape:window-maximized="0" showgrid="false" fit-margin-right="4" inkscape:document-units="px" bordercolor="#666666" inkscape:window-x="0" inkscape:guide-bbox="true" inkscape:window-y="0" fit-margin-bottom="4" inkscape:window-width="1440" inkscape:pageopacity="0.0" inkscape:pageshadow="2" pagecolor="#ffffff" showguides="true" inkscape:window-height="852" fit-margin-top="4">
  <sodipodi:guide position="4,4" inkscape:locked="false" orientation="1,0"/>
  <sodipodi:guide position="604,459.18566" inkscape:locked="false" orientation="1,0"/>
  <sodipodi:guide position="-198.43278,4" inkscape:locked="false" orientation="0,1"/>
  <sodipodi:guide position="-265.01408,604" inkscape:locked="false" orientation="0,1"/>
 </sodipodi:namedview>
 <g inkscape:label="Layer 1" transform="translate(-96 -348.36)" inkscape:groupmode="layer">
  <path d="m400 100c-165.69 0-300 134.31-300 300s134.31 300 300 300 300-134.31 300-300-134.31-300-300-300zm0 25c125.97 0 232.15 84.699 264.72 200.25-28.048 57.852-67.959 109.94-116.56 152.03-23.349 20.22-48.841 38.246-77 50.938s-59.132 19.893-89.969 18.125c-23.168-1.3286-46.055-7.7824-66.344-19.031 53.77-29.136 102.29-67.983 142-114.5 26.068-30.533 48.875-65.232 57.656-104.41 4.3908-19.587 5.1349-40.101 1.0312-59.75-4.1036-19.649-13.189-38.374-26.938-53-13.432-14.288-31.065-24.41-49.969-29.625-18.904-5.2154-39.022-5.6192-58.312-2.0938-38.582 7.0508-73.028 29.474-100.66 57.312-48.698 49.069-78.804 118.31-73.281 187.22 2.7612 34.456 14.308 68.313 34.094 96.656 4.4165 6.3266 9.2719 12.353 14.469 18.062-28.82 10.1-58.66 17.28-88.93 21.32-25.99-41.99-41-91.49-41-144.5 0-151.88 123.12-275 275-275zm1.75 55.562c19.331 0.0262 38.794 5.8785 54.219 17.531 13.897 10.499 24.194 25.434 30.031 41.844 5.8373 16.409 7.3354 34.229 5.3438 51.531-3.9832 34.605-21.44 66.34-42.531 94.062-37.344 49.086-86.982 88.373-142.19 115.88-5.6507 2.815-11.391 5.4906-17.156 8.0625-12.012-10.512-22.308-22.98-30.156-36.875-16.399-29.035-21.807-63.525-18.625-96.719 3.1816-33.194 14.573-65.185 29.875-94.812 17.742-34.352 41.926-66.89 75.781-85.562 16.927-9.3363 36.075-14.964 55.406-14.938zm270.78 182.62c1.61 12.05 2.47 24.34 2.47 36.82 0 151.88-123.12 275-275 275-85.296 0-161.53-38.83-211.97-99.781 31.134-7.0711 61.563-17.228 90.75-30.156 12.764 9.7205 26.86 17.693 41.844 23.438 43.151 16.543 92.142 14.149 135.81-0.96875 43.671-15.118 82.397-42.253 116.16-73.812 40.216-37.595 74.124-81.907 99.938-130.53z" transform="translate(0 252.36)" inkscape:connector-curvature="0" fill="#fff"/>
 </g>
</svg>
