<?xml version="1.0" encoding="UTF-8" standalone="no"?>
<svg xmlns:inkscape="http://www.inkscape.org/namespaces/inkscape" xmlns="http://www.w3.org/2000/svg" inkscape:version="0.92.3 (unknown)" height="345" width="345" version="1.0" sodipodi:docname="gnome.svg" xmlns:sodipodi="http://sodipodi.sourceforge.net/DTD/sodipodi-0.dtd">
 <sodipodi:namedview bordercolor="#666666" inkscape:pageshadow="2" guidetolerance="10" fit-margin-left="0" pagecolor="#ffffff" gridtolerance="10" fit-margin-top="0" inkscape:zoom="0.60626882" objecttolerance="10" borderopacity="1" fit-margin-right="0" inkscape:cx="-293.13106" inkscape:cy="118.30828" inkscape:current-layer="svg1903" fit-margin-bottom="0" inkscape:window-width="640" showgrid="false" inkscape:pageopacity="0" inkscape:window-height="480"/>
 <g fill="#fff" transform="translate(-175.96 -249.24)">
  <g fill="#fff" transform="translate(925.83 120.88)">
   <g transform="matrix(2.9149 0 0 2.9149 -717.59 128.5)" fill="#fff">
    <g fill="#fff">
     <path d="m86.068 0c-24.602 0-29.217 35.041-15.377 35.041 13.838 0 39.979-35.041 15.377-35.041z" inkscape:connector-curvature="0"/>
     <path d="m45.217 30.699c7.369 0.45 15.454-28.122 1.604-26.325-13.845 1.797-8.976 25.875-1.604 26.325z" inkscape:connector-curvature="0"/>
     <path d="m11.445 48.453c5.241-2.307 0.675-24.872-8.237-18.718-8.908 6.155 2.996 21.024 8.237 18.718z" inkscape:connector-curvature="0"/>
     <path d="m26.212 36.642c6.239-1.272 6.581-26.864-4.545-22.273-11.128 4.592-1.689 23.547 4.545 22.273z" inkscape:connector-curvature="0"/>
     <path d="m58.791 93.913c1.107 8.454-6.202 12.629-13.36 7.179-22.787-17.347 37.729-26.002 33.74-49.704-3.311-19.674-63.676-13.617-70.55 17.167-4.653 20.821 19.153 49.707 43.993 49.707 12.22 0 26.315-11.034 28.952-25.012 2.014-10.659-23.699-6.388-22.775 0.665z" inkscape:connector-curvature="0"/>
    </g>
   </g>
  </g>
 </g>
</svg>
