<?xml version="1.0" encoding="UTF-8" standalone="no"?>
<svg
   xmlns:dc="http://purl.org/dc/elements/1.1/"
   xmlns:cc="http://creativecommons.org/ns#"
   xmlns:rdf="http://www.w3.org/1999/02/22-rdf-syntax-ns#"
   xmlns:svg="http://www.w3.org/2000/svg"
   xmlns="http://www.w3.org/2000/svg"
   version="1.1"
   id="svg4165"
   viewBox="0 0 182.92116 48.000001"
   height="13.546667mm"
   width="51.624416mm">
  <defs
     id="defs4167" />
  <metadata
     id="metadata4170">
    <rdf:RDF>
      <cc:Work
         rdf:about="">
        <dc:format>image/svg+xml</dc:format>
        <dc:type
           rdf:resource="http://purl.org/dc/dcmitype/StillImage" />
        <dc:title></dc:title>
      </cc:Work>
    </rdf:RDF>
  </metadata>
  <g
     transform="translate(223.60343,-508.3622)"
     id="layer1">
    <g
       transform="matrix(0.28222345,0,0,0.28222345,-36.785655,379.75954)"
       id="g17296-6-9-7-0-8">
      <path
         d="m -571.29888,619.92674 c -4.606,1.153 -10.684,2.375 -18.238,3.669 -7.555,1.296 -16.296,1.942 -26.225,1.942 -8.633,0 -15.901,-1.261 -21.799,-3.775 -5.902,-2.516 -10.65,-6.079 -14.245,-10.685 -3.599,-4.604 -6.188,-10.037 -7.77,-16.296 -1.585,-6.259 -2.374,-13.198 -2.374,-20.827 l 0,-63.023 20.073,0 0,58.706 c 0,13.672 2.158,23.456 6.476,29.354 4.316,5.902 11.581,8.851 21.799,8.851 2.158,0 4.387,-0.072 6.691,-0.218 2.3,-0.141 4.458,-0.323 6.475,-0.539 2.013,-0.216 3.848,-0.431 5.504,-0.646 1.652,-0.216 2.839,-0.465 3.561,-0.755 l 0,-94.753 20.073,0 0,108.995 z"
         id="path8714-8-4-2-7-7-8" />
      <path
         d="m -522.30588,515.89474 c 2.445,-1.581 6.151,-3.237 11.115,-4.963 4.964,-1.728 10.684,-2.59 17.159,-2.59 8.057,0 15.216,1.438 21.476,4.315 6.259,2.88 11.547,6.907 15.863,12.088 4.317,5.18 7.588,11.368 9.821,18.562 2.229,7.196 3.346,15.107 3.346,23.74 0,9.066 -1.333,17.235 -3.993,24.5 -2.664,7.266 -6.441,13.417 -11.332,18.452 -4.894,5.039 -10.792,8.923 -17.698,11.656 -6.907,2.731 -14.677,4.1 -23.311,4.1 -9.355,0 -17.627,-0.646 -24.821,-1.942 -7.196,-1.295 -13.095,-2.589 -17.698,-3.885 l 0,-160.799 20.073,-3.452 0,60.218 z m 0,89.788 c 2.013,0.576 4.856,1.115 8.526,1.617 3.669,0.506 8.235,0.757 13.705,0.757 10.792,0 19.425,-3.562 25.9,-10.684 6.475,-7.124 9.713,-17.231 9.713,-30.327 0,-5.751 -0.577,-11.148 -1.727,-16.187 -1.153,-5.035 -3.021,-9.388 -5.611,-13.057 -2.59,-3.67 -5.936,-6.547 -10.037,-8.635 -4.101,-2.084 -9.032,-3.129 -14.785,-3.129 -5.47,0 -10.505,0.938 -15.108,2.806 -4.607,1.872 -8.131,3.815 -10.576,5.827 l 0,71.012 z"
         id="path8716-6-4-4-2-4-6" />
      <path
         d="m -331.50988,619.92674 c -4.607,1.153 -10.684,2.375 -18.238,3.669 -7.555,1.296 -16.295,1.942 -26.224,1.942 -8.634,0 -15.901,-1.261 -21.8,-3.775 -5.902,-2.516 -10.65,-6.079 -14.245,-10.685 -3.599,-4.604 -6.188,-10.037 -7.77,-16.296 -1.585,-6.26 -2.375,-13.199 -2.375,-20.828 l 0,-63.022 20.073,0 0,58.706 c 0,13.672 2.158,23.456 6.475,29.354 4.316,5.902 11.581,8.851 21.799,8.851 2.158,0 4.388,-0.072 6.691,-0.218 2.3,-0.141 4.458,-0.323 6.475,-0.539 2.013,-0.216 3.848,-0.431 5.504,-0.646 1.652,-0.216 2.84,-0.465 3.561,-0.755 l 0,-94.753 20.073,0 0,108.995 z"
         id="path8718-7-1-0-6-9-8" />
      <path
         d="m -302.59088,514.16874 c 4.604,-1.151 10.717,-2.375 18.347,-3.671 7.625,-1.294 16.402,-1.941 26.33,-1.941 8.922,0 16.33,1.261 22.232,3.776 5.898,2.52 10.609,6.043 14.137,10.576 3.523,4.533 6.006,9.967 7.447,16.296 1.436,6.333 2.158,13.312 2.158,20.937 l 0,63.023 -20.074,0 0,-58.708 c 0,-6.905 -0.469,-12.803 -1.402,-17.697 -0.938,-4.89 -2.48,-8.849 -4.641,-11.87 -2.158,-3.023 -5.037,-5.216 -8.633,-6.584 -3.6,-1.367 -8.061,-2.051 -13.381,-2.051 -2.16,0 -4.393,0.074 -6.691,0.216 -2.304,0.145 -4.499,0.325 -6.583,0.541 -2.089,0.215 -3.96,0.469 -5.611,0.755 -1.656,0.29 -2.844,0.506 -3.562,0.646 l 0,94.751 -20.073,0 0,-108.995 z"
         id="path8720-5-9-6-9-2-5" />
      <path
         d="m -165.53688,510.93174 42.52,0 0,16.835 -42.52,0 0,51.799 c 0,5.611 0.43,10.253 1.295,13.921 0.863,3.671 2.158,6.549 3.885,8.634 1.727,2.088 3.885,3.562 6.475,4.425 2.59,0.863 5.611,1.296 9.064,1.296 6.186,0 11.08,-0.682 14.678,-2.051 3.594,-1.366 6.043,-2.337 7.338,-2.913 l 4.316,16.403 c -2.016,1.008 -5.578,2.304 -10.684,3.884 -5.109,1.582 -10.898,2.374 -17.375,2.374 -7.627,0 -13.92,-0.97 -18.885,-2.913 -4.965,-1.943 -8.957,-4.856 -11.979,-8.741 -3.021,-3.886 -5.146,-8.668 -6.367,-14.354 -1.225,-5.682 -1.836,-12.264 -1.836,-19.748 l 0,-100.148 20.074,-3.453 0,34.75 z"
         id="path8722-1-1-4-4-40-9" />
      <path
         d="m -13.80688,619.92674 c -4.607,1.153 -10.686,2.375 -18.238,3.669 -7.555,1.296 -16.295,1.942 -26.225,1.942 -8.633,0 -15.9,-1.261 -21.799,-3.775 -5.902,-2.516 -10.65,-6.079 -14.246,-10.685 -3.598,-4.604 -6.188,-10.037 -7.77,-16.296 -1.586,-6.26 -2.375,-13.199 -2.375,-20.828 l 0,-63.022 20.074,0 0,58.706 c 0,13.672 2.158,23.456 6.475,29.354 4.316,5.902 11.58,8.851 21.799,8.851 2.158,0 4.387,-0.072 6.691,-0.218 2.299,-0.141 4.459,-0.323 6.475,-0.539 2.014,-0.216 3.848,-0.431 5.504,-0.646 1.652,-0.216 2.84,-0.465 3.561,-0.755 l 0,-94.753 20.074,0 0,108.995 z"
         id="path8724-9-7-7-9-59-8" />
    </g>
  </g>
</svg>
