<?xml version="1.0" encoding="UTF-8" standalone="no"?>
<svg
   xmlns:dc="http://purl.org/dc/elements/1.1/"
   xmlns:cc="http://creativecommons.org/ns#"
   xmlns:rdf="http://www.w3.org/1999/02/22-rdf-syntax-ns#"
   xmlns:svg="http://www.w3.org/2000/svg"
   xmlns="http://www.w3.org/2000/svg"
   xmlns:sodipodi="http://sodipodi.sourceforge.net/DTD/sodipodi-0.dtd"
   xmlns:inkscape="http://www.inkscape.org/namespaces/inkscape"
   version="1.1"
   id="svg4165"
   viewBox="0 0 146.1988 47.999997"
   height="48"
   width="146.19881"
   inkscape:version="0.91 r13725"
   sodipodi:docname="um-text-mate.svg">
  <sodipodi:namedview
     pagecolor="#ffffff"
     bordercolor="#666666"
     borderopacity="1"
     objecttolerance="10"
     gridtolerance="10"
     guidetolerance="10"
     inkscape:pageopacity="0"
     inkscape:pageshadow="2"
     inkscape:window-width="1443"
     inkscape:window-height="695"
     id="namedview11"
     showgrid="false"
     units="px"
     inkscape:zoom="3.433994"
     inkscape:cx="-7.6149556"
     inkscape:cy="5.3494105"
     inkscape:window-x="0"
     inkscape:window-y="24"
     inkscape:window-maximized="0"
     inkscape:current-layer="svg4165" />
  <defs
     id="defs4167" />
  <metadata
     id="metadata4170">
    <rdf:RDF>
      <cc:Work
         rdf:about="">
        <dc:format>image/svg+xml</dc:format>
        <dc:type
           rdf:resource="http://purl.org/dc/dcmitype/StillImage" />
        <dc:title></dc:title>
      </cc:Work>
    </rdf:RDF>
  </metadata>
  <g
     transform="translate(158.13141,-519.00506)"
     id="layer1">
    <g
       id="text3468"
       style="font-style:normal;font-variant:normal;font-weight:300;font-stretch:normal;font-size:64.41717529px;line-height:125%;font-family:'Source Sans Pro';-inkscape-font-specification:'Source Sans Pro Light';text-align:center;letter-spacing:0px;word-spacing:0px;text-anchor:middle;fill:#5a6943;fill-opacity:1;stroke:none"
       transform="translate(469.09342,-54.185741)">
      <path
         id="path3832"
         style="font-weight:bold;-inkscape-font-specification:'Source Sans Pro Bold';fill:#5a6943"
         d="m -627.22483,621.1908 8.69631,0 0,-15.39571 c 0,-4.12269 -0.70859,-10.24233 -1.1595,-14.30061 l 0.25766,0 3.3497,9.72699 6.44171,16.29755 3.80062,0 6.44172,-16.29755 3.47852,-9.72699 0.25767,0 c -0.45092,4.05828 -1.22392,10.17792 -1.22392,14.30061 l 0,15.39571 8.82515,0 0,-42 -9.98466,0 -6.82822,18.87423 -2.51227,7.34356 -0.25767,0 -2.51227,-7.34356 -7.02148,-18.87423 -10.04907,0 0,42"
         inkscape:connector-curvature="0" />
      <path
         id="path3834"
         style="font-weight:bold;-inkscape-font-specification:'Source Sans Pro Bold';fill:#5a6943"
         d="m -569.33191,603.79816 1.03068,-3.86503 c 1.1595,-4.18711 2.2546,-9.08283 3.28527,-13.52761 l 0.25767,0 c 1.09509,4.38036 2.2546,9.3405 3.41411,13.52761 l 0.96626,3.86503 -8.95399,0 m 13.46319,17.39264 10.04908,0 -13.1411,-42 -11.40184,0 -13.14111,42 9.66258,0 2.57669,-9.98467 12.81901,0 2.57669,9.98467"
         inkscape:connector-curvature="0" />
      <path
         id="path3836"
         style="font-weight:bold;-inkscape-font-specification:'Source Sans Pro Bold';fill:#5a6943"
         d="m -535.62865,621.1908 9.53375,0 0,-34.01227 11.53067,0 0,-7.98773 -32.59509,0 0,7.98773 11.53067,0 0,34.01227"
         inkscape:connector-curvature="0" />
      <path
         id="path3838"
         style="font-weight:bold;-inkscape-font-specification:'Source Sans Pro Bold';fill:#5a6943"
         d="m -507.9524,621.1908 26.92638,0 0,-7.98773 -17.45706,0 0,-9.66258 14.30061,0 0,-7.92331 -14.30061,0 0,-8.43865 16.81288,0 0,-7.98773 -26.2822,0 0,42"
         inkscape:connector-curvature="0" />
    </g>
  </g>
</svg>
