<svg id="svg6" xmlns:rdf="http://www.w3.org/1999/02/22-rdf-syntax-ns#" xmlns="http://www.w3.org/2000/svg" height="32" width="32" version="1.1" xmlns:cc="http://creativecommons.org/ns#" xmlns:dc="http://purl.org/dc/elements/1.1/" viewBox="0 0 30 30">
 <metadata id="metadata12">
  <rdf:RDF>
   <cc:Work rdf:about="">
    <dc:format>image/svg+xml</dc:format>
    <dc:type rdf:resource="http://purl.org/dc/dcmitype/StillImage"/>
    <dc:title/>
   </cc:Work>
  </rdf:RDF>
 </metadata>
 <g id="g824" transform="matrix(.12930 0 0 .12930 1.0083 4.106e-7)">
  <path id="path2" style="fill:#3088d4" d="m211.81 139.09c-3.1812 16.366-28.492 34.278-57.562 37.749-15.159 1.8088-30.084 3.4712-45.999 2.7412-26.028-1.1925-46.565-6.2125-46.565-6.2125 0 2.5338.15625 4.9462.46875 7.2025 3.3838 25.686 25.47 27.225 46.391 27.942 21.116.7225 39.919-5.2062 39.919-5.2062l.8675 19.09s-14.77 7.9312-41.081 9.39c-14.509.7975-32.524-.365-53.506-5.9188-45.521-12.05-53.347-60.56-54.544-109.78-.36541-14.61-.14041-28.392-.14041-39.918 0-50.33 32.976-65.082 32.976-65.082 16.627-7.6362 45.159-10.848 74.815-11.09h.72875c29.661.2425 58.211 3.4538 74.838 11.09 0 0 32.975 14.752 32.975 65.082 0 0 .41375 37.134-4.5988 62.915"/>
  <path id="path4" style="fill:#ffffff" d="m177.51 80.077v60.941h-24.144v-59.15c0-12.469-5.2462-18.798-15.74-18.798-11.602 0-17.418 7.5075-17.418 22.352v32.376h-24.003v-32.377c0-14.845-5.8162-22.352-17.419-22.352-10.494 0-15.74 6.3288-15.74 18.798v59.15h-24.143v-60.943c0-12.455 3.1712-22.352 9.5412-29.675 6.5688-7.3225 15.171-11.076 25.85-11.076 12.355 0 21.711 4.7488 27.898 14.248l6.0138 10.081 6.015-10.081c6.185-9.4988 15.541-14.248 27.898-14.248 10.678 0 19.28 3.7538 25.85 11.076 6.3688 7.3225 9.54 17.22 9.54 29.675"/>
 </g>
</svg>
