<svg width="48" height="48" style="enable-background:new" version="1.0" xmlns="http://www.w3.org/2000/svg" xmlns:xlink="http://www.w3.org/1999/xlink"><title>Suru Icon Theme Template</title><defs><style id="current-color-scheme" type="text/css">.ColorScheme-Text { color:#ffffff; } .ColorScheme-Highlight { color:#5294e2; }</style><filter id="filter1344" x="-.011357" y="-.01272" width="1.0227" height="1.0254" style="color-interpolation-filters:sRGB"><feGaussianBlur stdDeviation="1.06"/></filter><filter id="filter959" x="-.011357" y="-.01272" width="1.0227" height="1.0254" style="color-interpolation-filters:sRGB"><feGaussianBlur stdDeviation="1.06"/></filter><linearGradient id="linearGradient2369" x1="264" x2="48" y1="252" y2="52" gradientTransform="translate(-27.28 -38.771)" gradientUnits="userSpaceOnUse"><stop style="stop-color:#000000" offset="0"/><stop style="stop-color:#000000;stop-opacity:.4329" offset=".15899"/><stop style="stop-color:#000000;stop-opacity:.099567" offset=".19443"/><stop style="stop-color:#000000;stop-opacity:0" offset="1"/></linearGradient><filter id="filter1067" x="-.056786" y="-.0636" width="1.1136" height="1.1272" style="color-interpolation-filters:sRGB"><feGaussianBlur stdDeviation="5.3"/></filter><linearGradient id="linearGradient36623" x1="40" x2="264" y1="-100" y2="-308" gradientTransform="matrix(.19243 0 0 .19243 -5.2495 63.256)" gradientUnits="userSpaceOnUse"><stop style="stop-color:#45602a" offset="0"/><stop style="stop-color:#b4d959" offset="1"/></linearGradient><clipPath id="clipPath977-3"><path d="m78.994 52c-35.369 0-38.994 1.9991-38.994 37.297v50.703h224v-31.078c0-35.298-3.6256-40.922-38.994-40.922h-87.006l-16-16z" style="color:#000000;enable-background:accumulate;fill:#f6531e"/></clipPath><filter id="filter989" x="-.053571" y="-.068182" width="1.1071" height="1.1364" style="color-interpolation-filters:sRGB"><feGaussianBlur stdDeviation="5"/></filter><linearGradient id="linearGradient13856" x1="40" x2="264" y1="-244" y2="-100" gradientTransform="matrix(.19243 0 0 .19243 -5.2495 63.256)" gradientUnits="userSpaceOnUse"><stop style="stop-color:#666666" offset="0"/><stop style="stop-color:#7a7a7a" offset="1"/></linearGradient><radialGradient id="radialGradient2373" cx="152" cy="-.12591" r="112" gradientTransform="matrix(.19243 0 0 .050618 -5.2495 5.533)" gradientUnits="userSpaceOnUse" xlink:href="#linearGradient1361"/><linearGradient id="linearGradient1361"><stop style="stop-color:#ffffff" offset="0"/><stop style="stop-color:#ffffff;stop-opacity:.20392" offset="1"/></linearGradient><radialGradient id="radialGradient1363-3" cx="148" cy="39.684" r="112" gradientTransform="matrix(.19243 0 0 .0489 -5.2495 16.671)" gradientUnits="userSpaceOnUse" xlink:href="#linearGradient1361"/></defs><path transform="matrix(.19243 0 0 .19243 -7.4269e-8 1.4415)" d="m51.714 15.229c-35.369 0-38.994 1.9992-38.994 37.297v41.625 9.0781 73.078c0 35.298 3.6256 38.922 38.994 38.922h146.01c35.368 0 38.994-3.6241 38.994-38.922v-73.078-25.078-6c0-35.298-3.6256-40.922-38.994-40.922h-87.006l-16-16z" style="color:#000000;enable-background:accumulate;fill:#000000;filter:url(#filter1344);opacity:.1"/><path transform="matrix(.19243 0 0 .19243 -7.4269e-8 1.4415)" d="m51.714 14.229c-35.369 0-38.994 1.9992-38.994 37.297v41.625 60.656 29.5c0 35.298 3.6256 38.922 38.994 38.922h146.01c35.368 0 38.994-3.6241 38.994-38.922v-29.5-76.656-6c0-35.298-3.6256-40.922-38.994-40.922h-87.006l-16-16z" style="color:#000000;enable-background:accumulate;fill:#000000;filter:url(#filter959);opacity:.1"/><path transform="matrix(.19243 0 0 .19243 -7.4269e-8 1.4415)" d="m51.714 13.229c-35.369 0-38.994 1.9992-38.994 37.297v41.625 9.0781 81.078c0 35.298 3.6256 38.922 38.994 38.922h146.01c35.368 0 38.994-3.6241 38.994-38.922v-81.078-25.078-6c0-35.298-3.6256-40.922-38.994-40.922h-87.006l-16-16z" style="color:#000000;enable-background:accumulate;fill:url(#linearGradient2369);filter:url(#filter1067);opacity:.4"/><path d="m9.9514 3.9872c-6.806 0-7.5037.3847-7.5037 7.1771v17.454h43.105v-13.678c0-6.7924-.69768-7.8746-7.5037-7.8746h-16.743l-3.0789-3.0789z" style="color:#000000;enable-background:accumulate;fill:url(#linearGradient36623)"/><path transform="matrix(.19243 0 0 .19243 -5.2495 -4.4798)" d="m78.994 124c-35.369 0-38.994 3.625-38.994 38.923v50.155c0 35.298 3.625 38.923 38.994 38.923h146.01c35.369 0 38.994-3.625 38.994-38.923v-66.155c0-35.298-3.625-38.923-38.994-38.923h-81.256l-16.008 16z" clip-path="url(#clipPath977-3)" style="color:#000000;enable-background:accumulate;fill:#3e5725;filter:url(#filter989);opacity:.5"/><path d="m9.9513 19.382c-6.806 0-7.5036.69756-7.5036 7.4899v9.6513c0 6.7924.69756 7.4899 7.5036 7.4899h28.097c6.806 0 7.5036-.69756 7.5036-7.4899v-12.73c0-6.7924-.69962-7.3225-7.5036-7.4899h-15.636l-3.0804 3.0789z" style="color:#000000;enable-background:accumulate;fill:url(#linearGradient13856)"/><path d="m9.9514 3.9872c-6.806 0-7.5037.3847-7.5037 7.1771v.38486c0-6.7924.69768-7.1771 7.5037-7.1771h8.2757l3.0789 3.0789h16.743c6.806 0 7.5037 1.0823 7.5037 7.8746v-.38486c0-6.7924-.69768-7.8746-7.5037-7.8746h-16.743l-3.0789-3.0789z" style="color:#000000;enable-background:accumulate;fill:url(#radialGradient2373);opacity:.4"/><path d="m45.552 31.312-12.316 12.316h4.8119c6.806 0 7.5037-.6974 7.5037-7.4898z" style="color:#000000;enable-background:accumulate;fill:#ffffff;opacity:.05"/><path d="m2.4477 36.138v.38486c0 6.7924.69768 7.4898 7.5037 7.4898h28.097c6.806 0 7.5037-.6974 7.5037-7.4898v-.38486c0 6.7924-.69768 7.4898-7.5037 7.4898h-28.097c-6.806 0-7.5037-.6974-7.5037-7.4898z" style="color:#000000;enable-background:accumulate;fill:#000000;opacity:.2"/><path d="m22.412 16.303-3.0804 3.0789h-9.3806c-6.806 0-7.5037.6974-7.5037 7.4898v.38486c0-6.7924.69768-7.4898 7.5037-7.4898h9.3806l3.0804-3.0789h15.636c6.806 0 7.5037.6974 7.5037 7.4898v-.38486c0-6.7924-.69768-7.4898-7.5037-7.4898z" style="color:#000000;enable-background:accumulate;fill:url(#radialGradient1363-3);opacity:.4"/></svg>
