<svg width="48" height="48" style="enable-background:new" version="1.0" xmlns="http://www.w3.org/2000/svg" xmlns:xlink="http://www.w3.org/1999/xlink"><title>Suru Icon Theme Template</title><defs><linearGradient id="linearGradient4226" x1="529.66" x2="-35.31" y1="401.58" y2="119.09" gradientTransform="matrix(.097098 0 0 .097095 39.998 66.72)" gradientUnits="userSpaceOnUse"><stop style="stop-color:#5d8638" offset="0"/><stop style="stop-color:#93b258" offset="1"/></linearGradient><filter id="filter2353" x="-.108" y="-.108" width="1.216" height="1.216" style="color-interpolation-filters:sRGB"><feGaussianBlur stdDeviation="4.32"/></filter></defs><g transform="translate(-39.998 -67.997)"><g style="display:none"><text id="context" x="19.006836" y="-8.2548828" style="display:inline;enable-background:new;fill:#000000;font-family:'DejaVu Sans';line-height:0%" xml:space="preserve"><tspan x="19.006836" y="-8.2548828" style="font-family:'DejaVu Sans';font-size:18px;line-height:1.25">places</tspan></text><text id="icon-name" x="146.48828" y="-8.2548828" style="display:inline;enable-background:new;fill:#000000;font-family:'DejaVu Sans';font-weight:bold;line-height:0%" xml:space="preserve"><tspan x="146.48828" y="-8.2548828" style="font-family:'DejaVu Sans';font-size:18px;font-weight:bold;line-height:1.25">user-desktop</tspan></text><rect x="320" y="236" width="16" height="16" style="display:inline;enable-background:accumulate;fill:#cdcdcd"/><rect x="320" y="188" width="24" height="24" style="display:inline;enable-background:accumulate;fill:#cdcdcd"/><rect x="320" y="132" width="32" height="32" style="display:inline;enable-background:accumulate;fill:#cdcdcd"/><rect x="320" y="60" width="48" height="48" style="display:inline;enable-background:accumulate;fill:#cdcdcd"/><rect x="24" y="28" width="256" height="256" style="display:inline;enable-background:accumulate;fill:#cdcdcd"/></g><g><path d="m48.354 71.426c-7.5789-.03707-8.3555.89244-8.3555 8.4555v.1151.21428 24.018c0 7.5636.7765 8.34 8.3555 8.34h15.645 15.644c7.579 0 8.3559-.7764 8.3559-8.34v-24.018-.21428-.1151c0-7.5631-.77701-8.4926-8.3559-8.4555h-15.644z" style="color:#000000;enable-background:accumulate;fill:url(#linearGradient4226)"/><path d="m39.998 103.8v.42857c0 7.5636.7765 8.34 8.3555 8.34h15.645 15.644c7.579 0 8.3559-.7764 8.3559-8.34v-.42857c0 7.5636-.77692 8.34-8.3559 8.34h-15.644-15.645c-7.579 0-8.3555-.7764-8.3555-8.34z" style="color:#000000;enable-background:accumulate;fill:#000000;opacity:.2"/><path d="m63.998 90.967 7.3041 21.599h8.6087c7.3171-.0201 8.0872-.86891 8.0872-8.3379v-8.1186z" style="enable-background:new;fill:#eaffcf;opacity:.12"/><path d="m50.952 71.426c-1.149.0012-3.1899.01474-5.2709.05064-5.096.27744-5.6832 1.847-5.6832 8.4049v19.314l24-8.2282-5.2169-19.541z" style="enable-background:new;fill:#000000;opacity:.1"/></g><g><path transform="matrix(.21429 0 0 .21429 31.427 56.854)" d="m152 120c-26.51 0-48 21.489-48 48 0 26.509 21.49 48 48 48 26.509 0 48-21.492 48-48 0-26.511-21.491-48-48-48zm8.0209 12.979 18.646 11.021-18.667 11.021zm-8.0209 5.6668c1.3675 0 2.7047.108 4.0208.2916v4.0832c-1.3088-.2124-2.6494-.3336-4.0208-.3336-10.662 0-19.78 6.5344-23.521 15.833l-3.4583-2.0416c4.4907-10.469 14.892-17.833 26.979-17.833zm0 9.9791c1.3692 0 2.7077.1632 4 .438v4.1459c-1.2754-.3408-2.6155-.522-4-.522-7.0021 0-12.848 4.6529-14.688 11.042l-3.5833-2.125c2.6507-7.5414 9.8514-12.979 18.271-12.979zm23.542 1.8542c3.6511 4.8948 5.8125 10.965 5.8125 17.521 0 6.6583-2.2441 12.817-6 17.75l-3.4792-2.0626c3.4043-4.3096 5.4375-9.7498 5.4375-15.687 0-5.8262-1.9601-11.188-5.25-15.458zm-8.6875 5.1458c2.8129 3.3644 4.5209 7.6752 4.5209 12.375 0 4.8059-1.7812 9.2275-4.7084 12.625l-3.5625-2.1042c2.6041-2.7348 4.2083-6.4196 4.2083-10.521 0-3.9848-1.5071-7.5942-3.9791-10.313zm-48.833 1.3541 18.646 11.021-18.667 11.021zm19.292 15.292c1.8396 6.3838 7.6855 11.021 14.688 11.021 1.3848 0 2.7244-.186 4-.5208v4.1665c-1.2923.2748-2.6308.438-4 .438-8.426 0-15.626-5.4487-18.271-13zm-8.8333 5.2084c3.7405 9.299 12.859 15.833 23.521 15.833 1.3582 0 2.6817-.108 3.9791-.31319v4.0625c-1.3003.1812-2.628.2916-3.9791.2916-12.087 0-22.488-7.3646-26.979-17.833zm31.521 3.8542 18.646 11-18.667 11.021z" style="enable-background:new;fill:#000000;filter:url(#filter2353);opacity:.3;stroke-width:.66666"/><path d="m48.354 71.426c-7.5789-.03707-8.3555.77682-8.3555 8.3404v.42857c0-7.5636.77659-8.3775 8.3555-8.3404h15.645 15.644c7.5789-.03707 8.3559.77682 8.3559 8.3404v-.42857c0-7.5636-.77701-8.3775-8.3559-8.3404h-15.644z" style="color:#000000;enable-background:accumulate;fill:#ffffff;opacity:.2"/><path d="m63.998 81.711c-5.6807 0-10.286 4.6049-10.286 10.286 0 5.6805 4.605 10.286 10.286 10.286 5.6806 0 10.286-4.6053 10.286-10.286 0-5.6808-4.6051-10.286-10.286-10.286zm1.7188 2.7812 3.9955 2.3616-4 2.3616zm-1.7188 1.2143c.29304 0 .57957.02314.86161.06249v.87498c-.28047-.04551-.56772-.07149-.86161-.07149-2.2847 0-4.2386 1.4002-5.0402 3.3929l-.74107-.43748c.9623-2.2433 3.1911-3.8214 5.7812-3.8214zm0 2.1384c.29341 0 .58023.03497.85715.09386v.8884c-.27329-.07303-.56047-.11186-.85715-.11186-1.5004 0-2.7531.99704-3.1473 2.3661l-.76785-.45535c.568-1.616 2.111-2.7811 3.9152-2.7811zm5.0446.39734c.78237 1.0489 1.2455 2.3496 1.2455 3.7545 0 1.4268-.48088 2.7464-1.2857 3.8036l-.74553-.44198c.7295-.92348 1.1652-2.0892 1.1652-3.3616 0-1.2485-.42001-2.3974-1.125-3.3125zm-1.8616 1.1027c.60277.72095.96876 1.6447.96876 2.6518 0 1.0298-.38168 1.9773-1.0089 2.7053l-.7634-.4509c.55803-.58603.90179-1.3756.90179-2.2544 0-.8539-.32296-1.6273-.85267-2.2098zm-10.464.29016 3.9955 2.3616-4 2.3616zm4.1339 3.2768c.39419 1.3679 1.6469 2.3616 3.1473 2.3616.29673 0 .58379-.03986.85715-.1116v.89283c-.27692.05889-.56374.09386-.85715.09386-1.8056 0-3.3484-1.1676-3.9152-2.7857zm-1.8929 1.1161c.80153 1.9927 2.7554 3.3928 5.0402 3.3928.29105 0 .57466-.02314.85267-.06711v.87053c-.27864.03883-.56314.06249-.85267.06249-2.5901 0-4.8189-1.5781-5.7813-3.8214zm6.7545.82589 3.9955 2.3572-4 2.3616z" style="enable-background:new;fill:#eaffcf;stroke-width:.14286"/></g></g></svg>
